<mxfile host="app.diagrams.net" modified="2021-07-10T21:06:36.144Z" agent="5.0 (Windows NT 10.0; Win64; x64) AppleWebKit/537.36 (KHTML, like Gecko) Chrome/91.0.4472.124 Safari/537.36" etag="0q-npAOi-IlvsR9NkOiL" version="14.8.5" type="github">
  <diagram id="uNB8c1YKwWX-J67UwFsm" name="Page-1">
    <mxGraphModel dx="1138" dy="429" grid="1" gridSize="10" guides="1" tooltips="1" connect="1" arrows="1" fold="1" page="1" pageScale="1" pageWidth="850" pageHeight="1100" math="0" shadow="0">
      <root>
        <mxCell id="0" />
        <mxCell id="1" parent="0" />
        <mxCell id="7kME_-IxoIqVeiEY19HA-1" value="START" style="strokeWidth=2;html=1;shape=mxgraph.flowchart.start_1;whiteSpace=wrap;" vertex="1" parent="1">
          <mxGeometry x="325" y="40" width="105" height="70" as="geometry" />
        </mxCell>
        <mxCell id="7kME_-IxoIqVeiEY19HA-2" value="(KEYRead() != KEY4)" style="strokeWidth=2;html=1;shape=mxgraph.flowchart.decision;whiteSpace=wrap;" vertex="1" parent="1">
          <mxGeometry x="317.5" y="180" width="120" height="120" as="geometry" />
        </mxCell>
        <mxCell id="7kME_-IxoIqVeiEY19HA-3" value="VWTurn(180, 45)&lt;br&gt;&amp;nbsp;OSWait(100)" style="rounded=1;whiteSpace=wrap;html=1;absoluteArcSize=1;arcSize=14;strokeWidth=2;" vertex="1" parent="1">
          <mxGeometry x="297.5" y="380" width="160" height="70" as="geometry" />
        </mxCell>
        <mxCell id="7kME_-IxoIqVeiEY19HA-4" value="" style="endArrow=classic;html=1;exitX=0.5;exitY=1;exitDx=0;exitDy=0;exitPerimeter=0;entryX=0.5;entryY=0;entryDx=0;entryDy=0;entryPerimeter=0;" edge="1" parent="1" source="7kME_-IxoIqVeiEY19HA-1" target="7kME_-IxoIqVeiEY19HA-2">
          <mxGeometry width="50" height="50" relative="1" as="geometry">
            <mxPoint x="360" y="170" as="sourcePoint" />
            <mxPoint x="410" y="120" as="targetPoint" />
          </mxGeometry>
        </mxCell>
        <mxCell id="7kME_-IxoIqVeiEY19HA-5" value="" style="endArrow=classic;html=1;" edge="1" parent="1" source="7kME_-IxoIqVeiEY19HA-2" target="7kME_-IxoIqVeiEY19HA-3">
          <mxGeometry width="50" height="50" relative="1" as="geometry">
            <mxPoint x="377.5" y="350" as="sourcePoint" />
            <mxPoint x="377.5" y="370.71067811865476" as="targetPoint" />
          </mxGeometry>
        </mxCell>
        <mxCell id="7kME_-IxoIqVeiEY19HA-6" value="" style="endArrow=classic;html=1;" edge="1" parent="1" source="7kME_-IxoIqVeiEY19HA-3">
          <mxGeometry width="50" height="50" relative="1" as="geometry">
            <mxPoint x="457.5" y="465" as="sourcePoint" />
            <mxPoint x="528.2106781186548" y="415" as="targetPoint" />
          </mxGeometry>
        </mxCell>
        <mxCell id="7kME_-IxoIqVeiEY19HA-8" value="" style="endArrow=classic;html=1;" edge="1" parent="1" target="7kME_-IxoIqVeiEY19HA-2">
          <mxGeometry width="50" height="50" relative="1" as="geometry">
            <mxPoint x="530" y="240" as="sourcePoint" />
            <mxPoint x="470" y="270" as="targetPoint" />
          </mxGeometry>
        </mxCell>
        <mxCell id="7kME_-IxoIqVeiEY19HA-9" value="True" style="text;html=1;align=center;verticalAlign=middle;resizable=0;points=[];autosize=1;strokeColor=none;" vertex="1" parent="1">
          <mxGeometry x="370" y="320" width="40" height="20" as="geometry" />
        </mxCell>
        <mxCell id="7kME_-IxoIqVeiEY19HA-10" value="" style="endArrow=classic;html=1;" edge="1" parent="1" source="7kME_-IxoIqVeiEY19HA-2" target="7kME_-IxoIqVeiEY19HA-11">
          <mxGeometry width="50" height="50" relative="1" as="geometry">
            <mxPoint x="246.78932188134524" y="290" as="sourcePoint" />
            <mxPoint x="246.78932188134524" y="240" as="targetPoint" />
          </mxGeometry>
        </mxCell>
        <mxCell id="7kME_-IxoIqVeiEY19HA-11" value="STOP" style="ellipse;whiteSpace=wrap;html=1;" vertex="1" parent="1">
          <mxGeometry x="120" y="200" width="120" height="80" as="geometry" />
        </mxCell>
        <mxCell id="7kME_-IxoIqVeiEY19HA-12" value="False" style="text;html=1;align=center;verticalAlign=middle;resizable=0;points=[];autosize=1;strokeColor=none;" vertex="1" parent="1">
          <mxGeometry x="257.5" y="220" width="40" height="20" as="geometry" />
        </mxCell>
        <mxCell id="7kME_-IxoIqVeiEY19HA-13" value="" style="endArrow=none;html=1;" edge="1" parent="1">
          <mxGeometry width="50" height="50" relative="1" as="geometry">
            <mxPoint x="530" y="420" as="sourcePoint" />
            <mxPoint x="530" y="240" as="targetPoint" />
          </mxGeometry>
        </mxCell>
      </root>
    </mxGraphModel>
  </diagram>
</mxfile>
